<svg width="32" height="32" viewBox="0 0 32 32" fill="none" xmlns="http://www.w3.org/2000/svg">
<path fill-rule="evenodd" clip-rule="evenodd" d="M3 3C2.73478 3 2.48043 3.10536 2.29289 3.29289C2.10536 3.48043 2 3.73478 2 4C2 4.26522 2.10536 4.51957 2.29289 4.70711C2.48043 4.89464 2.73478 5 3 5H4V19C4 20.0609 4.42143 21.0783 5.17157 21.8284C5.92172 22.5786 6.93913 23 8 23H9.61333L8.05067 27.684C7.96686 27.9358 7.9865 28.2105 8.10527 28.4478C8.22405 28.6851 8.43222 28.8655 8.684 28.9493C8.93578 29.0331 9.21054 29.0135 9.44783 28.8947C9.68513 28.7759 9.86553 28.5678 9.94933 28.316L10.388 27H21.612L22.052 28.316C22.143 28.5581 22.3243 28.7555 22.5578 28.8668C22.7913 28.978 23.0589 28.9945 23.3042 28.9127C23.5496 28.8309 23.7537 28.6572 23.8738 28.4281C23.9938 28.199 24.0204 27.9323 23.948 27.684L22.388 23H24C25.0609 23 26.0783 22.5786 26.8284 21.8284C27.5786 21.0783 28 20.0609 28 19V5H29C29.2652 5 29.5196 4.89464 29.7071 4.70711C29.8946 4.51957 30 4.26522 30 4C30 3.73478 29.8946 3.48043 29.7071 3.29289C29.5196 3.10536 29.2652 3 29 3H3ZM11.72 23H20.28L20.9467 25H11.0533L11.72 23ZM22.5 11.0067C22.6146 10.9415 22.7153 10.8543 22.7961 10.75C22.8769 10.6458 22.9363 10.5266 22.9708 10.3994C23.0054 10.2721 23.0144 10.1392 22.9974 10.0085C22.9804 9.87768 22.9377 9.75155 22.8718 9.63734C22.8058 9.52313 22.7179 9.42309 22.6132 9.34298C22.5084 9.26287 22.3888 9.20428 22.2613 9.17057C22.1338 9.13686 22.0009 9.1287 21.8703 9.14657C21.7396 9.16443 21.6138 9.20797 21.5 9.27467C19.6821 10.327 18.0738 11.7056 16.756 13.3413L14.7067 11.2933C14.5192 11.1061 14.265 11.0009 14 11.0009C13.735 11.0009 13.4808 11.1061 13.2933 11.2933L9.29333 15.2933C9.19508 15.3849 9.11628 15.4953 9.06163 15.6179C9.00697 15.7406 8.97758 15.873 8.97521 16.0073C8.97284 16.1416 8.99754 16.2749 9.04784 16.3995C9.09813 16.524 9.17299 16.6371 9.26795 16.732C9.36291 16.827 9.47602 16.9019 9.60054 16.9522C9.72505 17.0025 9.85843 17.0272 9.9927 17.0248C10.127 17.0224 10.2594 16.993 10.3821 16.9384C10.5047 16.8837 10.6151 16.8049 10.7067 16.7067L14 13.4133L16.156 15.5707C16.2594 15.6741 16.3843 15.7536 16.5218 15.8035C16.6593 15.8534 16.8061 15.8726 16.9518 15.8596C17.0975 15.8467 17.2386 15.8019 17.3651 15.7285C17.4916 15.655 17.6005 15.5547 17.684 15.4347C18.946 13.6241 20.59 12.1125 22.5 11.0067Z" fill="#5E44FF"/>
</svg>
